<svg width="53" height="31" viewBox="0 0 53 31" fill="none" xmlns="http://www.w3.org/2000/svg">
  <path
    d="M12.0682 30H0.875V0.90909H11.9545C14.947 0.90909 17.5322 1.49148 19.7102 2.65625C21.8977 3.81155 23.5833 5.47822 24.767 7.65625C25.9602 9.82481 26.5568 12.4242 26.5568 15.4545C26.5568 18.4848 25.965 21.089 24.7812 23.267C23.5975 25.4356 21.9214 27.1023 19.7528 28.267C17.5843 29.4223 15.0227 30 12.0682 30ZM8.77273 23.2955H11.7841C13.2235 23.2955 14.4498 23.0634 15.4631 22.5994C16.4858 22.1354 17.2623 21.3352 17.7926 20.1989C18.3324 19.0625 18.6023 17.4811 18.6023 15.4545C18.6023 13.428 18.3277 11.8466 17.7784 10.7102C17.2386 9.57386 16.4432 8.77367 15.392 8.30966C14.3504 7.84564 13.072 7.61364 11.5568 7.61364H8.77273V23.2955ZM40.8359 30.3977C38.4685 30.3977 36.442 29.929 34.7564 28.9915C33.0708 28.0445 31.7782 26.7282 30.8786 25.0426C29.9789 23.3475 29.5291 21.3826 29.5291 19.1477C29.5291 16.9129 29.9789 14.9527 30.8786 13.267C31.7782 11.572 33.0708 10.2557 34.7564 9.31818C36.442 8.37121 38.4685 7.89773 40.8359 7.89773C43.2034 7.89773 45.2299 8.37121 46.9155 9.31818C48.6011 10.2557 49.8937 11.572 50.7933 13.267C51.6929 14.9527 52.1428 16.9129 52.1428 19.1477C52.1428 21.3826 51.6929 23.3475 50.7933 25.0426C49.8937 26.7282 48.6011 28.0445 46.9155 28.9915C45.2299 29.929 43.2034 30.3977 40.8359 30.3977ZM40.8928 24.6023C41.5556 24.6023 42.1286 24.3797 42.6115 23.9347C43.0945 23.4896 43.4685 22.8551 43.7337 22.0312C43.9988 21.2074 44.1314 20.2273 44.1314 19.0909C44.1314 17.9451 43.9988 16.965 43.7337 16.1506C43.4685 15.3267 43.0945 14.6922 42.6115 14.2472C42.1286 13.8021 41.5556 13.5795 40.8928 13.5795C40.192 13.5795 39.5907 13.8021 39.0888 14.2472C38.5869 14.6922 38.2034 15.3267 37.9382 16.1506C37.6731 16.965 37.5405 17.9451 37.5405 19.0909C37.5405 20.2273 37.6731 21.2074 37.9382 22.0312C38.2034 22.8551 38.5869 23.4896 39.0888 23.9347C39.5907 24.3797 40.192 24.6023 40.8928 24.6023Z"
    fill="#FDC221" />
</svg>
  