<svg width="203" height="48" viewBox="0 0 203 48" fill="none" xmlns="http://www.w3.org/2000/svg">
  <path
    d="M13.0682 39H1.875V9.90909H12.9545C15.947 9.90909 18.5322 10.4915 20.7102 11.6562C22.8977 12.8116 24.5833 14.4782 25.767 16.6562C26.9602 18.8248 27.5568 21.4242 27.5568 24.4545C27.5568 27.4848 26.965 30.089 25.7812 32.267C24.5975 34.4356 22.9214 36.1023 20.7528 37.267C18.5843 38.4223 16.0227 39 13.0682 39ZM9.77273 32.2955H12.7841C14.2235 32.2955 15.4498 32.0634 16.4631 31.5994C17.4858 31.1354 18.2623 30.3352 18.7926 29.1989C19.3324 28.0625 19.6023 26.4811 19.6023 24.4545C19.6023 22.428 19.3277 20.8466 18.7784 19.7102C18.2386 18.5739 17.4432 17.7737 16.392 17.3097C15.3504 16.8456 14.072 16.6136 12.5568 16.6136H9.77273V32.2955ZM41.8359 39.3977C39.4685 39.3977 37.442 38.929 35.7564 37.9915C34.0708 37.0445 32.7782 35.7282 31.8786 34.0426C30.9789 32.3475 30.5291 30.3826 30.5291 28.1477C30.5291 25.9129 30.9789 23.9527 31.8786 22.267C32.7782 20.572 34.0708 19.2557 35.7564 18.3182C37.442 17.3712 39.4685 16.8977 41.8359 16.8977C44.2034 16.8977 46.2299 17.3712 47.9155 18.3182C49.6011 19.2557 50.8937 20.572 51.7933 22.267C52.6929 23.9527 53.1428 25.9129 53.1428 28.1477C53.1428 30.3826 52.6929 32.3475 51.7933 34.0426C50.8937 35.7282 49.6011 37.0445 47.9155 37.9915C46.2299 38.929 44.2034 39.3977 41.8359 39.3977ZM41.8928 33.6023C42.5556 33.6023 43.1286 33.3797 43.6115 32.9347C44.0945 32.4896 44.4685 31.8551 44.7337 31.0312C44.9988 30.2074 45.1314 29.2273 45.1314 28.0909C45.1314 26.9451 44.9988 25.965 44.7337 25.1506C44.4685 24.3267 44.0945 23.6922 43.6115 23.2472C43.1286 22.8021 42.5556 22.5795 41.8928 22.5795C41.192 22.5795 40.5907 22.8021 40.0888 23.2472C39.5869 23.6922 39.2034 24.3267 38.9382 25.1506C38.6731 25.965 38.5405 26.9451 38.5405 28.0909C38.5405 29.2273 38.6731 30.2074 38.9382 31.0312C39.2034 31.8551 39.5869 32.4896 40.0888 32.9347C40.5907 33.3797 41.192 33.6023 41.8928 33.6023ZM73.4268 9.90909H81.3246V28.5455C81.3246 30.7614 80.7943 32.679 79.7337 34.2983C78.6825 35.9081 77.2147 37.1534 75.3303 38.0341C73.4458 38.9053 71.2583 39.3409 68.7678 39.3409C66.2583 39.3409 64.0613 38.9053 62.1768 38.0341C60.2924 37.1534 58.8246 35.9081 57.7734 34.2983C56.7318 32.679 56.2109 30.7614 56.2109 28.5455V9.90909H64.1087V27.8636C64.1087 28.7633 64.3075 29.5682 64.7053 30.2784C65.103 30.9792 65.6522 31.5284 66.353 31.9261C67.0632 32.3239 67.8681 32.5227 68.7678 32.5227C69.6768 32.5227 70.4818 32.3239 71.1825 31.9261C71.8833 31.5284 72.4325 30.9792 72.8303 30.2784C73.228 29.5682 73.4268 28.7633 73.4268 27.8636V9.90909ZM84.2827 16.2727V9.90909H109.567V16.2727H100.817V39H93.0327V16.2727H84.2827ZM115.763 39.3409C114.371 39.3409 113.14 39.1136 112.07 38.6591C111.01 38.1951 110.176 37.4943 109.57 36.5568C108.964 35.6193 108.661 34.4261 108.661 32.9773C108.661 31.7841 108.865 30.7661 109.272 29.9233C109.679 29.071 110.247 28.375 110.977 27.8352C111.706 27.2955 112.553 26.8835 113.519 26.5994C114.495 26.3153 115.546 26.1307 116.673 26.0455C117.894 25.9508 118.874 25.8371 119.613 25.7045C120.361 25.5625 120.901 25.3684 121.232 25.1222C121.564 24.8665 121.729 24.5303 121.729 24.1136V24.0568C121.729 23.4886 121.512 23.053 121.076 22.75C120.64 22.447 120.082 22.2955 119.4 22.2955C118.652 22.2955 118.041 22.4612 117.567 22.7926C117.103 23.1146 116.824 23.6117 116.729 24.2841H109.513C109.608 22.9583 110.03 21.7367 110.778 20.6193C111.535 19.4924 112.638 18.5928 114.087 17.9205C115.536 17.2386 117.345 16.8977 119.513 16.8977C121.076 16.8977 122.478 17.0824 123.718 17.4517C124.959 17.8116 126.014 18.3182 126.886 18.9716C127.757 19.6155 128.42 20.3731 128.874 21.2443C129.338 22.1061 129.57 23.0436 129.57 24.0568V39H122.241V35.9318H122.07C121.635 36.7462 121.104 37.4044 120.479 37.9062C119.864 38.4081 119.158 38.7727 118.363 39C117.577 39.2273 116.71 39.3409 115.763 39.3409ZM118.32 34.3977C118.917 34.3977 119.476 34.2746 119.996 34.0284C120.527 33.7822 120.958 33.4271 121.289 32.9631C121.621 32.4991 121.786 31.9356 121.786 31.2727V29.4545C121.578 29.5398 121.355 29.6203 121.119 29.696C120.891 29.7718 120.645 29.8428 120.38 29.9091C120.124 29.9754 119.85 30.0369 119.556 30.0938C119.272 30.1506 118.974 30.2027 118.661 30.25C118.055 30.3447 117.558 30.5009 117.17 30.7188C116.791 30.9271 116.507 31.1875 116.317 31.5C116.138 31.803 116.048 32.1439 116.048 32.5227C116.048 33.1288 116.261 33.5928 116.687 33.9148C117.113 34.2367 117.657 34.3977 118.32 34.3977ZM153.26 24.2841H146.044C146.006 23.839 145.85 23.4555 145.575 23.1335C145.301 22.8116 144.946 22.5653 144.51 22.3949C144.084 22.215 143.61 22.125 143.089 22.125C142.417 22.125 141.839 22.2481 141.357 22.4943C140.874 22.7405 140.637 23.0909 140.646 23.5455C140.637 23.8674 140.774 24.1657 141.058 24.4403C141.352 24.715 141.915 24.928 142.749 25.0795L147.18 25.875C149.415 26.2822 151.077 26.9687 152.166 27.9347C153.265 28.8911 153.819 30.1742 153.828 31.7841C153.819 33.3371 153.355 34.6866 152.436 35.8324C151.527 36.9687 150.282 37.8494 148.7 38.4744C147.128 39.09 145.334 39.3977 143.317 39.3977C139.983 39.3977 137.375 38.7159 135.49 37.3523C133.615 35.9886 132.569 34.1894 132.351 31.9545H140.135C140.239 32.6458 140.58 33.1809 141.158 33.5597C141.745 33.929 142.483 34.1136 143.374 34.1136C144.093 34.1136 144.685 33.9905 145.149 33.7443C145.623 33.4981 145.864 33.1477 145.874 32.6932C145.864 32.2765 145.656 31.9451 145.249 31.6989C144.851 31.4527 144.226 31.2538 143.374 31.1023L139.51 30.4205C137.285 30.0322 135.618 29.2936 134.51 28.2045C133.402 27.1155 132.853 25.714 132.862 24C132.853 22.4848 133.25 21.2017 134.055 20.1506C134.87 19.09 136.03 18.285 137.536 17.7358C139.051 17.1771 140.845 16.8977 142.919 16.8977C146.072 16.8977 148.558 17.5511 150.376 18.858C152.204 20.1648 153.165 21.9735 153.26 24.2841ZM163.878 33.8295L163.935 24.5114H164.957L170.241 17.1818H179.048L170.185 28.6023H167.969L163.878 33.8295ZM156.832 39V9.90909H164.673V39H156.832ZM170.298 39L165.298 30.3636L170.412 24.7955L179.276 39H170.298ZM201.033 24.2841H193.817C193.78 23.839 193.623 23.4555 193.349 23.1335C193.074 22.8116 192.719 22.5653 192.283 22.3949C191.857 22.215 191.384 22.125 190.863 22.125C190.191 22.125 189.613 22.2481 189.13 22.4943C188.647 22.7405 188.41 23.0909 188.42 23.5455C188.41 23.8674 188.548 24.1657 188.832 24.4403C189.125 24.715 189.689 24.928 190.522 25.0795L194.954 25.875C197.189 26.2822 198.851 26.9687 199.94 27.9347C201.038 28.8911 201.592 30.1742 201.602 31.7841C201.592 33.3371 201.128 34.6866 200.21 35.8324C199.3 36.9687 198.055 37.8494 196.474 38.4744C194.902 39.09 193.107 39.3977 191.09 39.3977C187.757 39.3977 185.148 38.7159 183.263 37.3523C181.388 35.9886 180.342 34.1894 180.124 31.9545H187.908C188.013 32.6458 188.353 33.1809 188.931 33.5597C189.518 33.929 190.257 34.1136 191.147 34.1136C191.867 34.1136 192.459 33.9905 192.923 33.7443C193.396 33.4981 193.638 33.1477 193.647 32.6932C193.638 32.2765 193.429 31.9451 193.022 31.6989C192.624 31.4527 191.999 31.2538 191.147 31.1023L187.283 30.4205C185.058 30.0322 183.391 29.2936 182.283 28.2045C181.175 27.1155 180.626 25.714 180.636 24C180.626 22.4848 181.024 21.2017 181.829 20.1506C182.643 19.09 183.803 18.285 185.309 17.7358C186.824 17.1771 188.619 16.8977 190.692 16.8977C193.846 16.8977 196.332 17.5511 198.15 18.858C199.978 20.1648 200.939 21.9735 201.033 24.2841Z"
    fill="#FFCC33" />
</svg>
  